<svg xmlns="http://www.w3.org/2000/svg" width="733.446" height="362.264" viewBox="0 0 733.446 362.264">
  <g id="Group_2273" data-name="Group 2273" transform="translate(-12.454 -260.046)">
    <g id="Group_2237" data-name="Group 2237" transform="translate(12.454 295.638)">
      <g id="Group_2236" data-name="Group 2236" transform="translate(0 28.403)">
        <path id="Path_6642" data-name="Path 6642" d="M251.165,533.991l-11.137-8.817-31.318-11.263-7.653,2.937-.7-5.386-16.006,8.815-13.661-8.143.438-6.549-8.352-.489V496c-.2,1.694-2.09,5.761-16.007,4.2-17.4-1.962-.7-21.551,2.783-24s13.92-1.468,16.009-2.939,9.045,3.917,9.045,3.917l3.481,7.837,3.479.489V473.748l13.92-4.408a51.147,51.147,0,0,1,.7-7.834c.7-3.918,14.614-11.755,14.614-11.755l20.88-3.429-4.176-6.855-6.96-1.473,2.087-4.9,20.878.982-.7,6.855,9.743,2.451-3.478-11.266L237.245,409.59l-4.872,5.387-7.656-.489,1.394-8.817s-11.833-3.918-16.7-3.918-.7,4.409-2.784,6.858,2.087,9.305,2.087,9.305l-9.047,3.919.7,8.327-8.351,2.446-.7-10.773-16.7-9.305V402.242l36.888-18.61-2.786-4.9-9.047,4.9-4.87-18.122s-6.961,11.263-7.658,13.225-26.446-2.447-26.446-2.447l-13.223-7.346-16.7-8.817L108.5,362.571l-5.566-6.855L73.7,343.472,57,349.837l-6.961,1.473-.7,11.752L37.508,361.1l-2.784,7.346,11.833-.982-.7,3.431-22.269,8.815,9.047,9.794L12.454,403.713l57.764-14.694s27.142,46.04,26.446,47.508-5.569,0-5.569,0-6.262,24.489-3.479,26.446S107.8,490.4,107.8,490.4l-2.785-14.2,25.054,26.936s29.229,2.451,30.621,6.859c1.252,3.961,18.247,11.485,21.666,12.963-5.163,7.731-16.05,30.551,22.181,45.807v63.673l14.615,9.3,9.047-33.306s7.654-10.773,11.83-10.283,27.145-19.589,27.839-24,9.742-.979,9.742-.979l2.089-16.163,9.742-12.241Z" transform="translate(-12.454 -343.472)" fill="#fff"/>
        <path id="Path_6643" data-name="Path 6643" d="M210.285,543.283v.7A2.659,2.659,0,0,0,210.285,543.283Z" transform="translate(-59.96 -391.453)" fill="#fff"/>
      </g>
      <path id="Path_6644" data-name="Path 6644" d="M277.562,396.145s16.355,12,16.355,11.267,11.134-10.779,11.134-10.779l6.96.491-10.787-12.245,2.784-4.9s-11.137-8.083-10.44-9.549-10.092.978-8-4.653-8.35-3.429-8.35-3.429l-14.268,11.511,11.136,2.692s13.224-1.958,14.615,5.879S289.045,394.428,277.562,396.145Z" transform="translate(-72.606 -319.5)" fill="#fff"/>
      <path id="Path_6645" data-name="Path 6645" d="M195.9,370.794l-5.916-10.532s4.175-3.18,4.175-3.915-3.826-1.717-3.826-1.717l-6.614,1.962,8-11.511s8,1.226,11.484,3.184-5.914,3.674-2.435,5.631,8.7-.489,10.089,1.468,5.22,4.168,6.264,2.451,2.089-5.143,3.829-3.674,0,14.447,0,14.447Z" transform="translate(-53.581 -315.455)" fill="#fff"/>
      <path id="Path_6646" data-name="Path 6646" d="M256.079,410.079l5.568-4.407,4.871,4.9-5.22,1.223Z" transform="translate(-70.956 -330.005)" fill="#fff"/>
      <path id="Path_6647" data-name="Path 6647" d="M242.468,366.646l-1.044-5.386,3.828-.245,1.741-4.652,5.218,1.467-3.132,5.636,4.524.489Z" transform="translate(-67.437 -318.164)" fill="#fff"/>
      <path id="Path_6648" data-name="Path 6648" d="M259.283,363.272l2.089-4.656,7.657.982Z" transform="translate(-71.726 -318.705)" fill="#fff"/>
      <path id="Path_6649" data-name="Path 6649" d="M221,346.589l-5.22-6.859,11.136-3.674,9.395,1.471,2.784,5.632Z" transform="translate(-61.279 -313.288)" fill="#fff"/>
      <path id="Path_6650" data-name="Path 6650" d="M272.564,341.217l6.96,1.714,5.219,7.592,9.4.489-1.741,3.181-11.484-1.467-6.957-6.611Z" transform="translate(-74.915 -314.527)" fill="#fff"/>
      <path id="Path_6651" data-name="Path 6651" d="M289.05,336.453l12.528,3.673,18.1-11.51-2.786-2.937h10.789l20.183-9.795s-8.915-16.556-40.714-6.614c-3.131.979,6.611,10.774,6.611,10.774Z" transform="translate(-78.874 -306.093)" fill="#fff"/>
      <path id="Path_6652" data-name="Path 6652" d="M288.592,329.5l14.268-3.671s.7-13.472-2.087-12.982-10.789,6.614-10.789,6.614Z" transform="translate(-78.764 -307.712)" fill="#fff"/>
      <path id="Path_6653" data-name="Path 6653" d="M332.793,345.34l-.7-12.244,11.484-.491,21.574-13.469,14.614,1.225s14.268-8.327,20.532-7.839,20.877,11.023,20.877,12.98,11.136,1.471,11.136,1.471l-12.178,8.08L417,350.237s-7.658,11.267-5.917,14.448-8-5.143-8-5.143l-.349,4.9,6.614,6.368-4.178,1.223-6.611-4.407-2.436,5.875,10.091,1.223-33.057,12L358.2,404.845s-20.183-12.734-13.225-19.834c1.117-1.141,5.916-6.365,5.916-6.365l-3.48-28.9Z" transform="translate(-89.211 -307.632)" fill="#fff"/>
      <path id="Path_6654" data-name="Path 6654" d="M451.985,460.272c0-.735,3.653-10.284,3.653-10.284h14.876l-.261-7.531-6-3.123,6.786-1.1,13.05-6.426,1.826-4.041h6.265l-.261-7.348,2.871-2.022,2.872,7.348h7.828s10.177-.551,10.7-1.835,9.919-10.839,9.919-10.839-2.611-12.672-10.7-11.752-6.264,5.326-6.264,5.326,4.438,7.343.261,12.123-6.526,3.12-6.526,3.12-6-4.226-6-8.078S494,410.683,494,410.683s-3.915,5.326-4.7,5.326-6,.183-4.7-6.8,15.4-10.835,18.27-20.755,13.832-12.12,20.1-11.2,33.144,7.346,32.1,10.286-4.958,4.22-4.958,4.22-10.18-3.118-11.484-2.2,7.308,7.715,7.308,7.715l31.057-13.962,15.4-.183,3.131-5.143H605.7l-8.352-7.527,7.309-6.43,5.479,4.408,9.4-5.509,18.527,8.815-18.005-13.589,6.523-1.106,1.568-8.448,14.877-6.06,3.65-10.835,10.441,4.4,5.48-1.835,8.612,4.592-3.391,12.122s16.7-6.06,32.1-4.408,17.225,4.225,17.225,4.225l16.7-9.183,67.333.367-2.348-4.407h46.192l2.35,9s-10.7.368-11.482,2.02,3.13,2.572,1.826,5.145-6.264,3.491-6.264,3.491,11.745,5.141,14.876,6.793-6,4.591-8.09,7.714-2.611,4.591-1.567,6.611-.261-2.386-4.437-.551-2.609,7.9-2.347,15.98-3.394,18.917-3.394,18.917l-11.484-14.875,4.176-22.591s-16.7-2.389-16.181,3.3.523,9.554.523,9.554-16.964-3.491-19.835.734-16.44,16.531-12,19.283,16.181.735,18.007,4.958,0,28.286-3.131,28.654-11.744,8.265-11.744,8.265c-2.609-.917,7.568,7.715,6,11.384s-4.175,5.326-5.479,1.473-6.265-12.307-8.875-11.756l-13.05,2.757,6.788,4.408-.524,4.591,3.656,5.875-3.393,14.509s-14.095,9.366-25.579,7.9-.521,7.165-.521,7.165,8.874,2.2,8.09,7.344-6.524,6.8-10.96,5.7-10.439-7.165-10.439-4.409,0,8.629,4.175,11.386,10.961,9.732,6.785,9.366-14.874-8.629-14.614-10.283-2.872-7.166-1.826-8.634-17.225-15.058-20.1-17.08-23.225,10.654-23.225,10.654,1.565,6.426-1.567,8.633-10.439,2.936-10.178.55-13.048-19.654-13.048-19.654l-14.354-7.344-14.875-.554-22.447-7.528s-8.871-1.1-3.391,4.042,8.091,7.16,8.091,7.16l8.351-2.019,9.657,4.408s-14.878,15.609-31.579,16.714L559.77,481.394s-3.132-3.123-5.221.366,30.537,31.406,30.537,31.406l15.4-2.756s-7.049,16.9-29.753,28.836l2.087,17.632-12.528,8.634-1.565,6.062-7.83,4.038-1.565,6.429s-11.744,8.082-13.31,8.633-16.7,2.018-16.7,2.018-9.4-17.448-9.135-22.223-8.873-12.674-8.873-12.674,3.131-4.223,4.7-4.591-9.915-30.487-9.915-30.487l-12.528-3.671-25.055,2.386-23.487-17.449s.521-13.406,3.131-15.245,11.745-11.018,14.354-11.569,8.873-9.183,8.873-9.183,8.352-3.674,11.744-3.489,23.491-.185,23.491-.185l3.13,4.776,20.879,6.61,3.915-4.592,31.056,2.389,2.611-8.632-15.921-1.1s-7.049-3.491-6.525-5.509,7.046-3.857,8.614-4.042,25.053,0,25.053,0l-4.7-6.8-4.437-6.243-9.395,1.1,4.176,3.857-5.48.549-1.565-3.674h-4.438s-6.524,6.431-6.524,7.532,2.35,2.939,2.35,2.939l-2.871,1.469-4.175-.183-.783-2.94s-8.612,5.88-4.958,8.082-.783,2.389-.783,2.389-2.87,1.1-4.959-7.348S508.1,445.4,508.1,445.4s-6.786-.551-6,2.752,13.829,7.9,13.829,7.9l-3.653,3.489-3.913-2.939s-12.527-6.427-13.311-8.266-7.568,2.391-9.134,2.023-8.35,3.857-8.091,4.774-4.435,6.977-4.435,6.977l-9.917,2.757-2.089-2.757-6.262,1.106Z" transform="translate(-113.926 -312.244)" fill="#fff"/>
      <path id="Path_6655" data-name="Path 6655" d="M471.028,461.8c.1-.378,1.914-6,1.914-6l.522-4.9-3.827-2.574-3.132-3.181,6.437-3.062,4,.857-1.394,3.062.873,2.324s5.913,4.9,6.436,5.514a43.566,43.566,0,0,1,2.262,4.652S470.331,464.371,471.028,461.8Z" transform="translate(-121.487 -338.749)" fill="#fff"/>
      <path id="Path_6656" data-name="Path 6656" d="M459.357,459.011s-.7-5.143.871-5.265a10.92,10.92,0,0,0,3.653-1.346l2.611.245,1.392,6.121S460.75,460.85,459.357,459.011Z" transform="translate(-119.733 -341.226)" fill="#fff"/>
      <path id="Path_6657" data-name="Path 6657" d="M629.321,643.484l-1.391-14.2s11.83-4.652,12.874-6.125,2.782,8.817,0,11.756S629.321,643.484,629.321,643.484Z" transform="translate(-160.25 -382.196)" fill="#fff"/>
      <path id="Path_6658" data-name="Path 6658" d="M849.406,667.466c-1.385-.113.349-28.165.349-28.165s10.784-.978,16.353-4.653,33.754-13.713,40.363-11.51v4.9l10.093,4.652,5.914-10.773s21.228,22.04,20.879,27.919-12.526,26.2-20.181,30.852-18.793-3.919-18.793-3.919l-.344-12.241-5.571,4.652-9.741-9.305S861.931,668.444,849.406,667.466Z" transform="translate(-213.305 -381.932)" fill="#fff"/>
      <path id="Path_6659" data-name="Path 6659" d="M795.537,580.986s21.574,20.323,24.009,20.569-2.086-9.792-2.086-9.792Z" transform="translate(-200.498 -372.104)" fill="#fff"/>
      <path id="Path_6660" data-name="Path 6660" d="M840.379,587.389s6.961,8.326,10.439,8.326,10.092-6.12,10.092-6.12l-2.784-11.511S838.64,586.655,840.379,587.389Z" transform="translate(-211.24 -371.407)" fill="#fff"/>
      <path id="Path_6661" data-name="Path 6661" d="M911.857,594.781c0,.734,6.958,7.1,6.958,7.1l6.959-.245,12.528,7.837,5.916-3.185,13.917,6.366S939.345,592.819,933.428,596c-5.7,3.065-13.221,1.957-13.221,1.957l-.7-4.409Z" transform="translate(-228.431 -375.122)" fill="#fff"/>
      <path id="Path_6662" data-name="Path 6662" d="M895.827,500.542s5.567-7.593,10.089-8.817,10.44-.489,9.05-3.429-2.089-9.795-2.089-9.795l4.87,2.694,1.046,13.959-20.184,9.061Z" transform="translate(-224.581 -347.494)" fill="#fff"/>
    </g>
    <g id="Group_2239" data-name="Group 2239" transform="translate(177.69 403.252)">
      <path id="Path_6663" data-name="Path 6663" d="M244.68,454.5c0,1.728-2.131,3.127-4.758,3.127s-4.761-1.4-4.761-3.127,2.132-3.123,4.761-3.123S244.68,452.772,244.68,454.5Z" transform="translate(-231.169 -448.594)" fill="#fff"/>
      <g id="Group_2238" data-name="Group 2238">
        <path id="Path_6664" data-name="Path 6664" d="M238.66,459.524c-4.827,0-8.752-2.649-8.752-5.906s3.925-5.9,8.752-5.9,8.751,2.649,8.751,5.9S243.485,459.524,238.66,459.524Zm0-10.885c-4.318,0-7.832,2.234-7.832,4.979s3.514,4.983,7.832,4.983,7.83-2.234,7.83-4.983S242.977,448.639,238.66,448.639Z" transform="translate(-229.908 -447.716)" fill="#fff"/>
      </g>
    </g>
    <g id="Group_2241" data-name="Group 2241" transform="translate(100.352 445.594)">
      <path id="Path_6665" data-name="Path 6665" d="M142.9,510.224c0,1.726-2.131,3.123-4.759,3.123s-4.76-1.4-4.76-3.123,2.132-3.125,4.76-3.125S142.9,508.495,142.9,510.224Z" transform="translate(-129.391 -504.318)" fill="#fff"/>
      <g id="Group_2240" data-name="Group 2240" transform="translate(0 0)">
        <path id="Path_6666" data-name="Path 6666" d="M136.881,515.249c-4.826,0-8.751-2.649-8.751-5.9s3.925-5.906,8.751-5.906,8.751,2.648,8.751,5.906S141.707,515.249,136.881,515.249Zm0-10.888c-4.318,0-7.831,2.234-7.831,4.984s3.513,4.982,7.831,4.982,7.83-2.235,7.83-4.982S141.2,504.361,136.881,504.361Z" transform="translate(-128.13 -503.439)" fill="#fff"/>
      </g>
    </g>
    <g id="Group_2243" data-name="Group 2243" transform="translate(129.828 473.174)">
      <path id="Path_6667" data-name="Path 6667" d="M181.695,546.519c0,1.724-2.131,3.123-4.759,3.123s-4.76-1.4-4.76-3.123,2.131-3.128,4.76-3.128S181.695,544.792,181.695,546.519Z" transform="translate(-168.183 -540.613)" fill="#fff"/>
      <g id="Group_2242" data-name="Group 2242" transform="translate(0 0)">
        <path id="Path_6668" data-name="Path 6668" d="M175.674,551.545c-4.827,0-8.753-2.651-8.753-5.9s3.926-5.906,8.753-5.906,8.751,2.649,8.751,5.906S180.5,551.545,175.674,551.545Zm0-10.888c-4.318,0-7.831,2.235-7.831,4.984s3.513,4.984,7.831,4.984,7.83-2.239,7.83-4.984S179.99,540.657,175.674,540.657Z" transform="translate(-166.921 -539.735)" fill="#fff"/>
      </g>
    </g>
    <g id="Group_2245" data-name="Group 2245" transform="translate(183.777 500.48)">
      <path id="Path_6669" data-name="Path 6669" d="M252.693,582.448c0,1.727-2.131,3.126-4.758,3.126s-4.761-1.4-4.761-3.126,2.131-3.124,4.761-3.124S252.693,580.724,252.693,582.448Z" transform="translate(-239.181 -576.547)" fill="#fff"/>
      <g id="Group_2244" data-name="Group 2244" transform="translate(0 0)">
        <path id="Path_6670" data-name="Path 6670" d="M246.673,587.474c-4.827,0-8.754-2.648-8.754-5.9s3.927-5.9,8.754-5.9,8.75,2.648,8.75,5.9S251.5,587.474,246.673,587.474Zm0-10.885c-4.319,0-7.832,2.235-7.832,4.981s3.513,4.984,7.832,4.984,7.83-2.235,7.83-4.984S250.988,576.589,246.673,576.589Z" transform="translate(-237.919 -575.669)" fill="#fff"/>
      </g>
    </g>
    <g id="Group_2247" data-name="Group 2247" transform="translate(255.341 536.458)">
      <path id="Path_6671" data-name="Path 6671" d="M346.87,629.8c0,1.727-2.13,3.128-4.758,3.128s-4.759-1.4-4.759-3.128,2.131-3.123,4.759-3.123S346.87,628.073,346.87,629.8Z" transform="translate(-333.36 -623.896)" fill="#fff"/>
      <g id="Group_2246" data-name="Group 2246">
        <path id="Path_6672" data-name="Path 6672" d="M340.85,634.825c-4.827,0-8.752-2.649-8.752-5.906s3.926-5.9,8.752-5.9,8.751,2.648,8.751,5.9S345.675,634.825,340.85,634.825Zm0-10.885c-4.318,0-7.83,2.234-7.83,4.979s3.513,4.984,7.83,4.984,7.83-2.235,7.83-4.984S345.167,623.94,340.85,623.94Z" transform="translate(-332.098 -623.018)" fill="#fff"/>
      </g>
    </g>
    <g id="Group_2249" data-name="Group 2249" transform="translate(422.144 556.925)">
      <path id="Path_6673" data-name="Path 6673" d="M566.386,656.735c0,1.724-2.131,3.125-4.758,3.125s-4.76-1.4-4.76-3.125,2.131-3.125,4.76-3.125S566.386,655.009,566.386,656.735Z" transform="translate(-552.876 -650.831)" fill="#fff"/>
      <g id="Group_2248" data-name="Group 2248">
        <path id="Path_6674" data-name="Path 6674" d="M560.367,661.763c-4.827,0-8.753-2.653-8.753-5.906s3.926-5.9,8.753-5.9,8.752,2.649,8.752,5.9S565.191,661.763,560.367,661.763Zm0-10.889c-4.318,0-7.831,2.234-7.831,4.983s3.513,4.984,7.831,4.984,7.83-2.237,7.83-4.984S564.683,650.874,560.367,650.874Z" transform="translate(-551.614 -649.953)" fill="#fff"/>
      </g>
    </g>
    <g id="Group_2251" data-name="Group 2251" transform="translate(435.654 464.767)">
      <path id="Path_6675" data-name="Path 6675" d="M584.168,535.449c0,1.727-2.131,3.126-4.759,3.126s-4.758-1.4-4.758-3.126,2.131-3.123,4.758-3.123S584.168,533.725,584.168,535.449Z" transform="translate(-570.656 -529.548)" fill="#fff"/>
      <g id="Group_2250" data-name="Group 2250">
        <path id="Path_6676" data-name="Path 6676" d="M578.147,540.475c-4.827,0-8.753-2.649-8.753-5.9s3.926-5.9,8.753-5.9,8.752,2.648,8.752,5.9S582.972,540.475,578.147,540.475Zm0-10.885c-4.317,0-7.831,2.234-7.831,4.981s3.514,4.984,7.831,4.984,7.83-2.235,7.83-4.984S582.463,529.59,578.147,529.59Z" transform="translate(-569.394 -528.67)" fill="#fff"/>
      </g>
    </g>
    <g id="Group_2253" data-name="Group 2253" transform="translate(370.425 419.338)">
      <path id="Path_6677" data-name="Path 6677" d="M498.325,475.668c0,1.728-2.131,3.123-4.759,3.123s-4.761-1.4-4.761-3.123,2.131-3.123,4.761-3.123S498.325,473.942,498.325,475.668Z" transform="translate(-484.813 -469.764)" fill="#fff"/>
      <g id="Group_2252" data-name="Group 2252">
        <path id="Path_6678" data-name="Path 6678" d="M492.3,480.695c-4.827,0-8.753-2.649-8.753-5.906s3.926-5.9,8.753-5.9,8.75,2.648,8.75,5.9S497.129,480.695,492.3,480.695Zm0-10.89c-4.319,0-7.831,2.235-7.831,4.984s3.512,4.984,7.831,4.984,7.83-2.235,7.83-4.984S496.622,469.805,492.3,469.805Z" transform="translate(-483.551 -468.885)" fill="#fff"/>
      </g>
    </g>
    <g id="Group_2255" data-name="Group 2255" transform="translate(555.406 467.89)">
      <path id="Path_6679" data-name="Path 6679" d="M741.763,539.562c0,1.723-2.131,3.124-4.758,3.124s-4.759-1.4-4.759-3.124,2.131-3.126,4.759-3.126S741.763,537.835,741.763,539.562Z" transform="translate(-728.252 -533.658)" fill="#fff"/>
      <g id="Group_2254" data-name="Group 2254" transform="translate(0 0)">
        <path id="Path_6680" data-name="Path 6680" d="M735.743,544.589c-4.828,0-8.753-2.653-8.753-5.9s3.925-5.9,8.753-5.9,8.75,2.648,8.75,5.9S740.568,544.589,735.743,544.589Zm0-10.887c-4.319,0-7.833,2.234-7.833,4.982s3.514,4.983,7.833,4.983,7.83-2.237,7.83-4.983S740.059,533.7,735.743,533.7Z" transform="translate(-726.99 -532.78)" fill="#fff"/>
      </g>
    </g>
    <g id="Group_2257" data-name="Group 2257" transform="translate(653.373 413.432)">
      <path id="Path_6681" data-name="Path 6681" d="M870.69,467.9c0,1.727-2.131,3.126-4.759,3.126s-4.758-1.4-4.758-3.126,2.13-3.123,4.758-3.123S870.69,466.174,870.69,467.9Z" transform="translate(-857.178 -461.992)" fill="#fff"/>
      <g id="Group_2256" data-name="Group 2256">
        <path id="Path_6682" data-name="Path 6682" d="M864.669,472.923c-4.827,0-8.753-2.648-8.753-5.9s3.926-5.906,8.753-5.906,8.751,2.649,8.751,5.906S869.494,472.923,864.669,472.923Zm0-10.888c-4.318,0-7.831,2.238-7.831,4.984S860.351,472,864.669,472s7.83-2.235,7.83-4.984S868.985,462.035,864.669,462.035Z" transform="translate(-855.916 -461.113)" fill="#fff"/>
      </g>
    </g>
    <g id="Group_2259" data-name="Group 2259" transform="translate(689.161 433.597)">
      <ellipse id="Ellipse_1" data-name="Ellipse 1" cx="4.759" cy="3.123" rx="4.759" ry="3.123" transform="translate(3.994 2.783)" fill="#fff"/>
      <g id="Group_2258" data-name="Group 2258">
        <path id="Path_6683" data-name="Path 6683" d="M911.767,499.46c-4.827,0-8.753-2.648-8.753-5.9s3.926-5.906,8.753-5.906,8.752,2.649,8.752,5.906S916.592,499.46,911.767,499.46Zm0-10.888c-4.317,0-7.831,2.235-7.831,4.984s3.514,4.984,7.831,4.984,7.83-2.235,7.83-4.984S916.083,488.572,911.767,488.572Z" transform="translate(-903.014 -487.65)" fill="#fff"/>
      </g>
    </g>
    <g id="Group_2261" data-name="Group 2261" transform="translate(719.021 562.83)">
      <path id="Path_6684" data-name="Path 6684" d="M957.08,664.5c0,1.728-2.131,3.127-4.759,3.127s-4.76-1.4-4.76-3.127,2.132-3.123,4.76-3.123S957.08,662.779,957.08,664.5Z" transform="translate(-943.571 -658.601)" fill="#fff"/>
      <g id="Group_2260" data-name="Group 2260" transform="translate(0 0)">
        <path id="Path_6685" data-name="Path 6685" d="M951.06,669.53c-4.825,0-8.75-2.648-8.75-5.9s3.925-5.9,8.75-5.9,8.752,2.649,8.752,5.9S955.885,669.53,951.06,669.53Zm0-10.885c-4.317,0-7.83,2.235-7.83,4.98s3.513,4.983,7.83,4.983,7.831-2.234,7.831-4.983S955.379,658.645,951.06,658.645Z" transform="translate(-942.31 -657.723)" fill="#fff"/>
      </g>
    </g>
    <g id="Group_2263" data-name="Group 2263" transform="translate(522.22 365.399)">
      <path id="Path_6686" data-name="Path 6686" d="M698.088,404.679c0,1.728-2.131,3.128-4.759,3.128s-4.758-1.4-4.758-3.128,2.131-3.123,4.758-3.123S698.088,402.956,698.088,404.679Z" transform="translate(-684.578 -398.778)" fill="#fff"/>
      <g id="Group_2262" data-name="Group 2262">
        <path id="Path_6687" data-name="Path 6687" d="M692.067,409.707c-4.825,0-8.751-2.648-8.751-5.906s3.926-5.9,8.751-5.9,8.752,2.648,8.752,5.9S696.893,409.707,692.067,409.707Zm0-10.885c-4.315,0-7.83,2.235-7.83,4.979s3.514,4.984,7.83,4.984,7.83-2.235,7.83-4.984S696.385,398.822,692.067,398.822Z" transform="translate(-683.316 -397.9)" fill="#fff"/>
      </g>
    </g>
    <g id="Group_2265" data-name="Group 2265" transform="translate(222.926 572.995)">
      <path id="Path_6688" data-name="Path 6688" d="M304.213,677.885c0,1.727-2.131,3.126-4.759,3.126s-4.761-1.4-4.761-3.126,2.131-3.125,4.761-3.125S304.213,676.161,304.213,677.885Z" transform="translate(-290.701 -671.98)" fill="#fff"/>
      <g id="Group_2264" data-name="Group 2264">
        <path id="Path_6689" data-name="Path 6689" d="M298.192,682.911c-4.827,0-8.753-2.648-8.753-5.9s3.926-5.906,8.753-5.906,8.75,2.648,8.75,5.906S303.017,682.911,298.192,682.911Zm0-10.888c-4.319,0-7.831,2.237-7.831,4.984s3.512,4.984,7.831,4.984,7.83-2.235,7.83-4.984S302.508,672.023,298.192,672.023Z" transform="translate(-289.439 -671.101)" fill="#fff"/>
      </g>
    </g>
    <g id="Group_2267" data-name="Group 2267" transform="translate(192.531 412.786)">
      <g id="Group_2266" data-name="Group 2266">
        <path id="Path_6690" data-name="Path 6690" d="M249.439,582.6s.222-.951.728-2.658" transform="translate(-249.439 -489)" fill="none" stroke="#57e2e5" stroke-miterlimit="10" stroke-width="4.989"/>
        <path id="path3" d="M252.616,546.021c9.5-26.946,50.218-112.276,176.8-77.59" transform="translate(-250.202 -460.263)" fill="none" stroke="#57e2e5" stroke-miterlimit="10" stroke-width="4.989" stroke-dasharray="14.769 14.769"/>
        <path id="Path_6692" data-name="Path 6692" d="M488.769,471.987q1.32.376,2.654.769" transform="translate(-306.91 -463.078)" fill="none" stroke="#57e2e5" stroke-miterlimit="10" stroke-width="4.989"/>
      </g>
    </g>
    <path id="path2" d="M178.44,540.132s179.316-90.094,292.314,83.749" transform="translate(-39.859 -61.052)" fill="none" stroke="#57e2e5" stroke-miterlimit="10" stroke-width="4.989" stroke-dasharray="14.967"/>
    <path id="path4" d="M300.942,621.476c-4.761-250.085,332.48-197.183,332.48-105.107" transform="translate(-69.264 -42.575)" fill="none" stroke="#57e2e5" stroke-miterlimit="10" stroke-width="4.989" stroke-dasharray="14.967"/>
    <path id="path5" d="M241.426,409.154c0-217.5,475.683-174.207,475.683,7.061" transform="translate(-54.984 0)" fill="none" stroke="#57e2e5" stroke-miterlimit="10" stroke-width="4.989" stroke-dasharray="14.967"/>
    <path id="path7" d="M892.125,571.1c0-339.312-195.24-364.49-195.24-200.555" transform="translate(-164.355 -2.372)" fill="none" stroke="#57e2e5" stroke-miterlimit="10" stroke-width="4.989" stroke-dasharray="14.967"/>
    <path id="path6" d="M580.913,483.682c0-203.3,253.507-197.486,253.507-28.042" transform="translate(-136.506 -16.138)" fill="none" stroke="#57e2e5" stroke-miterlimit="10" stroke-width="4.989" stroke-dasharray="14.967"/>
    <path id="path1" d="M140.409,477.8c0-150.628,154.41-155.756,154.41,90.968" transform="translate(-30.726 -26.406)" fill="none" stroke="#57e2e5" stroke-miterlimit="10" stroke-width="4.989" stroke-dasharray="14.967"/>
  </g>
</svg>
